HIERARCHY
ROOT joint_0
{
	OFFSET 0.000000 0.000000 0.000000
	CHANNELS 6 Xposition Yposition Zposition Zrotation Yrotation Xrotation 
	JOINT joint_1
	{
		OFFSET 7.566162 2.250183 114.799927
		CHANNELS 3 Zrotation Yrotation Xrotation
		JOINT joint_2
		{
			OFFSET -5.201660 -0.414001 104.936035
			CHANNELS 3 Zrotation Yrotation Xrotation
			JOINT joint_3
			{
				OFFSET -6.923584 -0.419739 104.718018
				CHANNELS 3 Zrotation Yrotation Xrotation
				JOINT joint_4
				{
					OFFSET 3.108887 2.881104 149.449951
					CHANNELS 3 Zrotation Yrotation Xrotation
					JOINT joint_5
					{
						OFFSET 19.988770 5.920349 90.786987
						CHANNELS 3 Zrotation Yrotation Xrotation
						End Site
						{
							OFFSET 0.000000 0.000000 0.000000
						}
					}
				}
				JOINT joint_6
				{
					OFFSET 9.283936 -30.015930 84.410034
					CHANNELS 3 Zrotation Yrotation Xrotation
					JOINT joint_7
					{
						OFFSET 47.243164 -155.716736 -23.241089
						CHANNELS 3 Zrotation Yrotation Xrotation
						JOINT joint_8
						{
							OFFSET 31.323730 -15.356873 -268.798950
							CHANNELS 3 Zrotation Yrotation Xrotation
							JOINT joint_9
							{
								OFFSET 28.122314 -2.114624 -262.450012
								CHANNELS 3 Zrotation Yrotation Xrotation
								End Site
								{
									OFFSET 0.000000 0.000000 0.000000
								}
							}
						}
					}
				}
				JOINT joint_10
				{
					OFFSET -5.580566 33.311218 83.498047
					CHANNELS 3 Zrotation Yrotation Xrotation
					JOINT joint_11
					{
						OFFSET -22.773438 160.515381 -27.138062
						CHANNELS 3 Zrotation Yrotation Xrotation
						JOINT joint_12
						{
							OFFSET 27.004395 30.848877 -267.937988
							CHANNELS 3 Zrotation Yrotation Xrotation
							JOINT joint_13
							{
								OFFSET 32.625000 14.824585 -261.518005
								CHANNELS 3 Zrotation Yrotation Xrotation
								End Site
								{
									OFFSET 0.000000 0.000000 0.000000
								}
							}
						}
					}
				}
			}
		}
	}
	JOINT joint_14
	{
		OFFSET 20.623535 -83.447632 -106.174011
		CHANNELS 3 Zrotation Yrotation Xrotation
		JOINT joint_15
		{
			OFFSET 0.661865 -23.563843 -459.915039
			CHANNELS 3 Zrotation Yrotation Xrotation
			JOINT joint_16
			{
				OFFSET -23.461670 -28.727966 -444.760971
				CHANNELS 3 Zrotation Yrotation Xrotation
				JOINT joint_17
				{
					OFFSET 178.992920 54.047363 -80.113001
					CHANNELS 3 Zrotation Yrotation Xrotation
					End Site
					{
						OFFSET 0.000000 0.000000 0.000000
					}
				}
			}
		}
	}
	JOINT joint_18
	{
		OFFSET -19.571533 84.686279 -105.380005
		CHANNELS 3 Zrotation Yrotation Xrotation
		JOINT joint_19
		{
			OFFSET -22.949951 3.639404 -459.933044
			CHANNELS 3 Zrotation Yrotation Xrotation
			JOINT joint_20
			{
				OFFSET -33.690674 4.092651 -445.010971
				CHANNELS 3 Zrotation Yrotation Xrotation
				JOINT joint_21
				{
					OFFSET 187.419678 18.953857 -76.759001
					CHANNELS 3 Zrotation Yrotation Xrotation
					End Site
					{
						OFFSET 0.000000 0.000000 0.000000
					}
				}
			}
		}
	}
}
MOTION
Frames: 13
Frame Time: 0.016667
-3274.030762 886.432800 1110.754028 -14.455618 2.382694 -0.547248 0.074243 -1.883724 0.718032 0.072164 0.247752 -0.108583 0.088674 -0.377387 0.125246 0.009766 -0.544024 0.103345 0.000000 0.000000 0.000000 0.888614 4.099356 -0.554756 0.342254 4.917222 1.761825 0.200828 1.178954 1.897570 0.000000 0.000000 0.000000 4.151796 4.630066 -1.573543 -0.026636 3.655460 -3.625979 0.078022 1.244735 -0.123190 0.000000 0.000000 0.000000 -0.441768 2.463538 0.359161 -0.215351 -3.420963 0.811311 -0.397395 -1.535513 0.286372 0.000000 0.000000 0.000000 1.294616 -1.234358 -1.480609 1.203983 -0.424828 0.270146 1.183056 -0.629852 0.547095 0.000000 0.000000 0.000000 
-3272.446533 886.318848 1110.574951 -14.486406 2.751898 -0.632099 0.066757 -1.925789 0.709172 0.070230 0.241933 -0.105459 0.086622 -0.372943 0.123086 0.011548 -0.893469 0.194243 0.000000 0.000000 0.000000 0.942986 4.158296 -0.537258 0.363331 4.973820 1.742779 0.206126 1.234381 1.948035 0.000000 0.000000 0.000000 4.108688 4.686287 -1.583841 -0.025115 3.725311 -3.601374 0.064466 1.322552 -0.286036 0.000000 0.000000 0.000000 -0.473435 2.189481 0.399634 -0.247571 -3.518534 0.866941 -0.437910 -1.529801 0.266657 0.000000 0.000000 0.000000 1.325031 -1.496333 -1.402572 1.241841 -0.522176 0.260542 1.219189 -0.665478 0.565463 0.000000 0.000000 0.000000 
-3270.568604 886.186829 1110.375000 -14.517676 3.119225 -0.718231 0.063638 -1.925683 0.696757 0.072521 0.235394 -0.102611 0.088702 -0.362774 0.119110 0.014766 -1.237537 0.279767 0.000000 0.000000 0.000000 0.998746 4.205780 -0.492739 0.381003 5.002096 1.692726 0.209078 1.293955 1.980788 0.000000 0.000000 0.000000 4.072880 4.711900 -1.624090 -0.021406 3.773360 -3.537651 0.055980 1.408483 -0.413244 0.000000 0.000000 0.000000 -0.520446 1.936653 0.423489 -0.294380 -3.625988 0.935603 -0.493364 -1.526086 0.240922 0.000000 0.000000 0.000000 1.350530 -1.736095 -1.331771 1.273975 -0.624831 0.260045 1.250239 -0.710517 0.582690 0.000000 0.000000 0.000000 
-3268.477783 886.029663 1110.171021 -14.558653 3.442456 -0.801053 0.069823 -1.831771 0.677221 0.082501 0.223714 -0.100505 0.098400 -0.340728 0.113965 0.020074 -1.569156 0.353842 0.000000 0.000000 0.000000 1.046317 4.226185 -0.408142 0.391320 4.977261 1.598080 0.207471 1.354537 1.978221 0.000000 0.000000 0.000000 4.051788 4.683268 -1.709046 -0.014836 3.779391 -3.416557 0.057060 1.505670 -0.468895 0.000000 0.000000 0.000000 -0.589603 1.743084 0.419239 -0.361797 -3.745439 1.021936 -0.570799 -1.502959 0.199575 0.000000 0.000000 0.000000 1.371446 -1.913051 -1.275191 1.299663 -0.728530 0.275679 1.276016 -0.764684 0.598669 0.000000 0.000000 0.000000 
-3266.092285 885.854309 1109.946045 -14.600197 3.762395 -0.884823 0.081857 -1.693156 0.652317 0.097334 0.211208 -0.096982 0.112725 -0.315191 0.107098 0.026587 -1.895080 0.422011 0.000000 0.000000 0.000000 1.093625 4.234885 -0.299974 0.397670 4.925521 1.475451 0.203479 1.419432 1.957755 0.000000 0.000000 0.000000 4.034479 4.624736 -1.820970 -0.006152 3.764112 -3.259588 0.063124 1.611242 -0.488684 0.000000 0.000000 0.000000 -0.674406 1.572336 0.397859 -0.443942 -3.874946 1.122616 -0.663531 -1.480684 0.151726 0.000000 0.000000 0.000000 1.387527 -2.065891 -1.226181 1.319778 -0.838135 0.300662 1.296865 -0.827363 0.613476 0.000000 0.000000 0.000000 
-3263.158447 885.700745 1109.661011 -14.608280 4.128904 -0.968385 0.089922 -1.568881 0.626188 0.108243 0.197536 -0.093643 0.123155 -0.290229 0.100678 0.034367 -2.213314 0.483120 0.000000 0.000000 0.000000 1.146295 4.264081 -0.197458 0.403367 4.891096 1.334283 0.206586 1.437595 1.985622 0.000000 0.000000 0.000000 4.010425 4.580459 -1.944753 0.007139 3.767254 -3.100343 0.062712 1.643743 -0.512142 0.000000 0.000000 0.000000 -0.759184 1.386429 0.372163 -0.526820 -3.991331 1.222991 -0.752307 -1.531239 0.127702 0.000000 0.000000 0.000000 1.386009 -2.243820 -1.184558 1.322943 -0.942612 0.320631 1.300471 -0.904130 0.622629 0.000000 0.000000 0.000000 
-3259.687256 885.577576 1109.311035 -14.566612 4.562768 -1.046972 0.088901 -1.481206 0.595209 0.111257 0.186825 -0.087857 0.125540 -0.273664 0.094344 0.043750 -2.516737 0.533103 0.000000 0.000000 0.000000 1.215059 4.328911 -0.109015 0.409909 4.896886 1.187688 0.217767 1.363428 2.062564 0.000000 0.000000 0.000000 3.971390 4.566341 -2.073659 0.025388 3.801574 -2.965141 0.053632 1.563251 -0.530444 0.000000 0.000000 0.000000 -0.841081 1.175532 0.338796 -0.607245 -4.102875 1.323403 -0.832226 -1.706919 0.145504 0.000000 0.000000 0.000000 1.358687 -2.476459 -1.151513 1.301786 -1.030608 0.328056 1.278915 -1.003951 0.623795 0.000000 0.000000 0.000000 
-3255.666504 885.476074 1108.900024 -14.491178 5.042323 -1.123991 0.083642 -1.405574 0.564068 0.110166 0.175937 -0.082722 0.123902 -0.261313 0.088987 0.054387 -2.812612 0.575198 0.000000 0.000000 0.000000 1.289621 4.415302 -0.026785 0.416841 4.921335 1.023875 0.235986 1.241211 2.185759 0.000000 0.000000 0.000000 3.924720 4.567395 -2.215362 0.048567 3.855764 -2.827215 0.038227 1.408744 -0.551909 0.000000 0.000000 0.000000 -0.923001 0.951268 0.301039 -0.688252 -4.202263 1.422496 -0.908131 -1.952412 0.186284 0.000000 0.000000 0.000000 1.312943 -2.732527 -1.125872 1.263138 -1.114266 0.330856 1.239700 -1.114571 0.618804 0.000000 0.000000 0.000000 
-3250.808594 885.400574 1108.404053 -14.392995 5.552965 -1.210164 0.076324 -1.335148 0.542396 0.106396 0.165947 -0.077277 0.119562 -0.248598 0.083666 0.063799 -3.110703 0.623105 0.000000 0.000000 0.000000 1.348354 4.514811 0.048080 0.424898 4.943596 0.811700 0.268141 1.151499 2.418733 0.000000 0.000000 0.000000 3.890077 4.581729 -2.376297 0.078326 3.933022 -2.637317 0.011863 1.222812 -0.644868 0.000000 0.000000 0.000000 -1.000263 0.711083 0.282438 -0.767359 -4.245364 1.502921 -0.977436 -2.176903 0.223768 0.000000 0.000000 0.000000 1.258402 -2.969054 -1.101583 1.216236 -1.218449 0.334733 1.192764 -1.206466 0.608732 0.000000 0.000000 0.000000 
-3245.074219 885.354187 1107.750000 -14.281151 6.095062 -1.311820 0.069033 -1.258811 0.538178 0.101154 0.156021 -0.072229 0.113858 -0.235353 0.079840 0.072211 -3.421962 0.678205 0.000000 0.000000 0.000000 1.376587 4.628113 0.119031 0.435621 4.951960 0.521424 0.321767 1.144564 2.821939 0.000000 0.000000 0.000000 3.879596 4.605558 -2.568346 0.117566 4.035259 -2.357930 -0.031314 1.006114 -0.860939 0.000000 0.000000 0.000000 -1.072894 0.452414 0.296564 -0.844340 -4.237366 1.568414 -1.042990 -2.321540 0.238926 0.000000 0.000000 0.000000 1.198460 -3.168693 -1.080175 1.163420 -1.374409 0.351818 1.141445 -1.265595 0.593518 0.000000 0.000000 0.000000 
-3238.502686 885.334778 1107.010986 -14.147135 6.666609 -1.422962 0.060260 -1.182781 0.547913 0.093088 0.145577 -0.070394 0.105616 -0.224934 0.077525 0.079443 -3.736012 0.738318 0.000000 0.000000 0.000000 1.389629 4.757669 0.186540 0.449382 4.958372 0.178278 0.390871 1.166760 3.334993 0.000000 0.000000 0.000000 3.879514 4.642091 -2.785748 0.165011 4.162716 -2.019808 -0.084660 0.758475 -1.148878 0.000000 0.000000 0.000000 -1.140832 0.180121 0.331110 -0.919345 -4.174220 1.614984 -1.102001 -2.439039 0.248935 0.000000 0.000000 0.000000 1.129506 -3.346388 -1.058253 1.102172 -1.551861 0.370012 1.082098 -1.299246 0.572417 0.000000 0.000000 0.000000 
-3230.922852 885.338135 1106.369995 -13.978363 7.247691 -1.535242 0.048648 -1.124445 0.559163 0.082189 0.138766 -0.070537 0.094860 -0.219205 0.077382 0.083563 -4.035513 0.808322 0.000000 0.000000 0.000000 1.403526 4.895182 0.236137 0.464308 4.978519 -0.160037 0.460687 1.143346 3.837614 0.000000 0.000000 0.000000 3.865767 4.699657 -3.009724 0.215055 4.316138 -1.678720 -0.134827 0.518897 -1.422803 0.000000 0.000000 0.000000 -1.197620 -0.094453 0.370504 -0.988690 -4.001464 1.611970 -1.142323 -2.604968 0.282013 0.000000 0.000000 0.000000 1.052217 -3.503756 -1.023974 1.035622 -1.686819 0.359308 1.015554 -1.312948 0.546327 0.000000 0.000000 0.000000 
-3222.306885 885.358948 1105.887939 -13.779036 7.835496 -1.661562 0.034307 -1.093137 0.588074 0.068155 0.134182 -0.079421 0.081989 -0.215602 0.082158 0.084081 -4.305414 0.885946 0.000000 0.000000 0.000000 1.424665 5.036616 0.261880 0.479639 5.015402 -0.479459 0.525470 1.073885 4.292316 0.000000 0.000000 0.000000 3.832991 4.782334 -3.243803 0.265143 4.498488 -1.349842 -0.176301 0.309976 -1.647828 0.000000 0.000000 0.000000 -1.235351 -0.377857 0.433442 -1.045919 -3.695990 1.536916 -1.156450 -2.823695 0.342756 0.000000 0.000000 0.000000 0.967546 -3.651225 -0.951349 0.967162 -1.752531 0.304318 0.944522 -1.289106 0.514576 0.000000 0.000000 0.000000 
